PathFileType	4	(X/Y/Z)	./resultDataOpenSim/trcMotMarkerGrf/sub10/qtm-13-06.trc
DataRate	CameraRate	NumFrames	NumMarkers	Units	OrigDataRate	OrigDataStartFrame	OrigNumFrames
250.000000	250.000000	8	24	m	250.000000	321	513
Frame#	Time	L.Toe.Tip			R.Toe.Tip			L.Ankle.Lat			R.Ankle.Lat			L.Ankle.Med			R.Ankle.Med			L.Heel			R.Heel			L.Knee.Lat			R.Knee.Lat			L.Knee.Med			R.Knee.Med			L.Thigh.Upper			R.Thigh.Upper			L.ASIS			R.ASIS			V.Sacral			L.Acromium			R.Acromium			C7			L.Elbow			R.Elbow			L.Wrist.Lat			R.Wrist.Lat
		X1	Y1	Z1	X2	Y2	Z2	X3	Y3	Z3	X4	Y4	Z4	X5	Y5	Z5	X6	Y6	Z6	X7	Y7	Z7	X8	Y8	Z8	X9	Y9	Z9	X10	Y10	Z10	X11	Y11	Z11	X12	Y12	Z12	X13	Y13	Z13	X14	Y14	Z14	X15	Y15	Z15	X16	Y16	Z16	X17	Y17	Z17	X18	Y18	Z18	X19	Y19	Z19	X20	Y20	Z20	X21	Y21	Z21	X22	Y22	Z22	X23	Y23	Z23	X24	Y24	Z24

321	1.28	0.11329245	0.0099139906	-0.14349464	0.94180782	0.039618961	0.0021958561	0.10196951	0.14797805	-0.18748604	0.80162786	0.053597424	0.055059567	0.13765329	0.14587267	-0.10922079	0.81188009	0.080509099	-0.030690029	0.059239243	0.19308187	-0.13714074	0.74836127	0.029601524	0.013994784	0.3863617	0.40972488	-0.20615372	0.77407445	0.45618295	0.079448687	0.40367971	0.36274663	-0.09216216	0.75361077	0.45832929	-0.046766637	0.52178184	0.76759335	-0.23326494	0.61535013	0.83136007	0.14545969	0.60666647	0.86871467	-0.18027495	0.65405883	0.90275948	0.050558293	0.43393783	0.91783891	-0.02737111	0.56890903	1.3704553	-0.19781218	0.5216591	1.3584033	0.12044962	0.46764141	1.3874995	-0.05265046	0.53618876	1.0394764	-0.32034671	0.36904498	1.0560096	0.12577075	0.77469469	0.9581089	-0.34941044	0.33539908	0.86097939	0.26708859
322	1.284	0.11752571	0.012612507	-0.14518366	0.94190327	0.039545056	0.0022496551	0.10872555	0.15153523	-0.1889366	0.80157073	0.053655457	0.055019784	0.14410403	0.14902311	-0.11044334	0.81208002	0.080626476	-0.030625247	0.066460902	0.19722998	-0.13864109	0.74838289	0.029623018	0.014005701	0.39522236	0.41068147	-0.20643847	0.77785736	0.4564268	0.079716791	0.41228014	0.3635082	-0.092907857	0.76008092	0.45986511	-0.046620506	0.5294999	0.76854436	-0.23331935	0.62031596	0.83221956	0.14601283	0.61393107	0.86968037	-0.17930545	0.66048582	0.90386682	0.051382437	0.43930944	0.91840974	-0.028032741	0.57544021	1.3717129	-0.19725431	0.52802808	1.3592063	0.12122692	0.473741	1.3888623	-0.052037128	0.54206891	1.0392737	-0.31868597	0.37673797	1.0560004	0.12597935	0.77933587	0.95759027	-0.3480768	0.34365285	0.86020846	0.26621021
323	1.288	0.12217142	0.015583704	-0.14695919	0.94195318	0.03948559	0.0022953593	0.11560722	0.15515788	-0.19026658	0.80150153	0.053674352	0.055002156	0.15056831	0.15228342	-0.1115308	0.81224189	0.080736701	-0.030545661	0.07360155	0.20131852	-0.14004188	0.74837608	0.029636035	0.014029472	0.40437239	0.41153139	-0.20669178	0.78135554	0.45659746	0.080085589	0.42103296	0.36431545	-0.093389522	0.76650109	0.46121043	-0.04635931	0.53709418	0.76955666	-0.23338457	0.62506952	0.83303852	0.14654666	0.62113367	0.87075559	-0.17834518	0.66682145	0.90506831	0.052280974	0.4449158	0.91880426	-0.028874343	0.58195735	1.3730061	-0.19669305	0.53440253	1.360082	0.12198121	0.47989332	1.3903541	-0.051455584	0.54805772	1.0392579	-0.31693967	0.38441669	1.0560332	0.12619224	0.78392289	0.95702847	-0.34676278	0.35203365	0.85948512	0.26536453
324	1.292	0.12728408	0.018841847	-0.14880004	0.9419703	0.039440242	0.0023502999	0.12261142	0.15883133	-0.19149433	0.801389	0.053681983	0.05500501	0.15708621	0.15562785	-0.11250018	0.81234831	0.080829263	-0.030449672	0.080696058	0.2053662	-0.14132906	0.74834552	0.029649649	0.014064533	0.41374843	0.41227103	-0.20690843	0.78458055	0.45668568	0.080547131	0.42995796	0.36515753	-0.093663064	0.77278944	0.46234617	-0.04601492	0.54452559	0.77060147	-0.23346562	0.62965023	0.83381597	0.14707871	0.62815123	0.87190138	-0.17749832	0.67305658	0.90636947	0.053239017	0.45076483	0.91912347	-0.029863071	0.58846087	1.3743458	-0.19614351	0.54078576	1.361038	0.12270155	0.48609195	1.3919602	-0.050897575	0.5538992	1.0399518	-0.31509198	0.39208193	1.0561205	0.12640147	0.78843605	0.95641639	-0.34547824	0.36052528	0.85881308	0.26453939
325	1.296	0.13288968	0.022355921	-0.15069898	0.94197128	0.039404419	0.0024206682	0.12974091	0.16254635	-0.19263231	0.80123763	0.053701348	0.055017436	0.16370234	0.15903077	-0.11338082	0.81243229	0.080912181	-0.030342972	0.08780161	0.20938411	-0.14248214	0.74830431	0.029674316	0.014103131	0.42328084	0.41291147	-0.20709062	0.78754551	0.45668866	0.081105768	0.43905436	0.36604031	-0.093786586	0.7788395	0.46324928	-0.04565001	0.55177601	0.77164623	-0.23353923	0.63406731	0.83456006	0.14760009	0.63494801	0.87310876	-0.17679731	0.67919016	0.90778273	0.054268106	0.45682728	0.91938982	-0.030959531	0.59496567	1.3757365	-0.19562978	0.54717839	1.3620741	0.12338044	0.49231694	1.3936615	-0.050360545	0.55957567	1.0412614	-0.31347867	0.39972829	1.0562695	0.12660015	0.7928437	0.95575493	-0.3442268	0.36912785	0.85819687	0.26372918
326	1.3	0.13896375	0.026050509	-0.152658	0.94197308	0.039369302	0.0025009171	0.13700383	0.16629855	-0.19368859	0.80107277	0.053738676	0.055026249	0.17045147	0.16246669	-0.11420276	0.81253488	0.080992131	-0.030238728	0.094992474	0.21337582	-0.14350741	0.7482682	0.029712572	0.014127493	0.43294111	0.41347263	-0.20725151	0.79028893	0.45660634	0.081749401	0.44824376	0.3669677	-0.093820626	0.78453318	0.46390938	-0.045306805	0.55885033	0.77266887	-0.23356896	0.63833789	0.83529598	0.14810024	0.64156299	0.87439651	-0.17621447	0.68522377	0.90931325	0.055383278	0.46297351	0.91966106	-0.032133909	0.6014862	1.3771721	-0.1951581	0.55359468	1.3631904	0.12401749	0.49854294	1.3954343	-0.049845777	0.565116	1.0427788	-0.31227321	0.40734848	1.0564895	0.12678712	0.79711971	0.95505744	-0.34300089	0.37786886	0.85765151	0.26294804
327	1.304	0.14544927	0.029840279	-0.15467252	0.94198838	0.039330138	0.0025812646	0.14440338	0.17007678	-0.19468158	0.80092642	0.053784273	0.055022162	0.17736052	0.16591261	-0.1149829	0.81267691	0.081065191	-0.030153566	0.10234588	0.21734665	-0.14446615	0.74824584	0.029758833	0.014121198	0.44273587	0.41397631	-0.20740321	0.79282604	0.45644506	0.082428576	0.45747602	0.36793199	-0.093808649	0.78978881	0.46433627	-0.044975736	0.56575883	0.77366481	-0.23353202	0.64251989	0.83605302	0.1485935	0.64803337	0.87578228	-0.17572956	0.69115072	0.91094666	0.05657003	0.46892783	0.92008857	-0.03330653	0.60799503	1.3786442	-0.1946971	0.56004371	1.3643876	0.12460956	0.50474713	1.3972507	-0.049352638	0.57015727	1.0442845	-0.31100226	0.41493744	1.0567894	0.12696429	0.80126411	0.95433799	-0.34179423	0.38678025	0.85720104	0.26222391
328	1.308	0.15228327	0.033658841	-0.15670565	0.94201979	0.039291025	0.0026535663	0.15193794	0.17386328	-0.19563447	0.80083257	0.053825981	0.054998555	0.18445629	0.16934889	-0.11572362	0.81285219	0.081124652	-0.030098908	0.10990806	0.22130113	-0.14541912	0.74823584	0.029808781	0.014082209	0.45266769	0.41444407	-0.20755628	0.79512209	0.45622186	0.083062045	0.46679859	0.36891925	-0.093785431	0.79459278	0.46455893	-0.04464	0.57249879	0.77464456	-0.23342882	0.64669123	0.83685558	0.14910325	0.6543777	0.87727714	-0.17533964	0.69696246	0.91266166	0.057798371	0.47444601	0.92079676	-0.03427322	0.61442637	1.380153	-0.19420187	0.5665036	1.3656624	0.12514473	0.510916	1.3990811	-0.048874918	0.57362073	1.0459678	-0.30869495	0.42249094	1.0571691	0.12712196	0.8053029	0.95360047	-0.34061129	0.39586353	0.85686271	0.26156906
